<svg id="Capa_1" enable-background="new 0 0 512 512" height="512" viewBox="0 0 512 512" width="512" xmlns="http://www.w3.org/2000/svg" xmlns:xlink="http://www.w3.org/1999/xlink"><linearGradient id="SVGID_1_" gradientUnits="userSpaceOnUse" x1="256" x2="256" y1="451" y2="46"><stop offset="0" stop-color="#fd3a84"/><stop offset="1" stop-color="#ffa68d"/></linearGradient><linearGradient id="SVGID_2_" gradientUnits="userSpaceOnUse" x1="256" x2="256" y1="466" y2="436"><stop offset="0" stop-color="#ffc2cc"/><stop offset="1" stop-color="#fff2f4"/></linearGradient><g><g><g><path d="m106 256h-60c-8.284 0-15 6.716-15 15v180h90v-180c0-8.284-6.716-15-15-15zm120-210h-60c-8.284 0-15 6.716-15 15v390h90v-390c0-8.284-6.716-15-15-15zm120 270h-60c-8.284 0-15 6.716-15 15v120h90v-120c0-8.284-6.716-15-15-15zm120-210h-60c-8.284 0-15 6.716-15 15v330h90v-330c0-8.284-6.716-15-15-15z" fill="url(#SVGID_1_)"/></g></g><g><g><path d="m497 436h-482c-8.284 0-15 6.716-15 15s6.716 15 15 15h482c8.284 0 15-6.716 15-15s-6.716-15-15-15z" fill="url(#SVGID_2_)"/></g></g></g></svg>